<?xml version="1.0" standalone="no"?>
<!DOCTYPE svg PUBLIC "-//W3C//DTD SVG 20010904//EN"
 "http://www.w3.org/TR/2001/REC-SVG-20010904/DTD/svg10.dtd">
<svg version="1.0" xmlns="http://www.w3.org/2000/svg"
 width="1000.000000pt" height="1000.000000pt" viewBox="0 0 1000.000000 1000.000000"
 preserveAspectRatio="xMidYMid meet">
<metadata>
Created by potrace 1.14, written by Peter Selinger 2001-2017
</metadata>
<g transform="translate(0.000000,1000.000000) scale(0.100000,-0.100000)"
fill="#000000" stroke="none">
<path d="M5223 9319 c-155 -19 -253 -51 -384 -127 -46 -26 -62 -30 -81 -23
-23 9 -183 43 -258 55 -50 9 -233 20 -310 19 -376 -2 -742 -126 -1045 -356
-103 -78 -215 -183 -294 -276 -12 -13 -27 -21 -35 -18 -32 13 -168 22 -311 22
-185 0 -234 -7 -375 -53 -201 -65 -370 -201 -488 -392 -46 -75 -47 -76 -152
-128 -426 -212 -664 -496 -824 -978 -26 -79 -31 -86 -139 -195 -292 -296 -454
-616 -484 -954 -10 -113 -3 -260 16 -347 6 -24 12 -54 15 -68 6 -33 45 -157
60 -195 7 -16 23 -53 36 -81 14 -34 20 -59 15 -74 -11 -36 -14 -258 -3 -335
48 -365 265 -636 609 -764 68 -25 162 -50 214 -57 22 -3 56 -9 75 -13 19 -4
64 -9 100 -10 l65 -3 60 -60 c73 -74 158 -135 250 -182 73 -37 175 -76 212
-81 11 -2 32 -6 44 -10 71 -23 315 -27 409 -8 l71 15 63 -64 c75 -76 172 -128
296 -160 68 -18 115 -22 235 -22 192 -1 295 13 466 63 l66 19 69 -32 c59 -28
230 -104 341 -153 170 -73 401 -143 569 -170 53 -9 316 -11 348 -3 16 4 22 -3
32 -38 7 -23 15 -55 17 -70 3 -15 12 -56 22 -92 9 -36 19 -74 21 -84 6 -30 63
-213 90 -289 58 -165 138 -308 231 -414 129 -148 282 -228 693 -363 275 -89
330 -119 455 -245 131 -131 198 -246 249 -425 20 -70 39 -141 42 -158 7 -40
64 -133 105 -173 95 -96 220 -130 389 -106 316 46 562 201 656 413 48 108 42
206 -20 338 -52 112 -121 310 -142 411 -43 210 -46 225 -34 225 15 0 15 0 91
21 141 39 210 86 403 276 177 175 250 224 349 237 162 22 330 83 487 179 36
22 67 42 70 46 3 3 23 20 45 36 42 31 160 147 207 202 143 169 297 469 387
753 44 140 98 366 115 480 7 45 10 59 34 155 22 85 31 144 31 212 1 31 8 48
29 70 86 89 150 198 171 293 11 46 8 234 -4 305 -13 77 -65 266 -120 432 l-54
167 35 89 c143 357 123 668 -59 912 -51 69 -118 137 -177 179 -28 21 -40 38
-41 55 -3 80 -18 217 -29 261 -5 19 -14 58 -21 85 -80 343 -315 711 -589 922
-134 104 -297 186 -430 218 -55 13 -129 19 -234 19 -118 1 -130 3 -140 21 -56
101 -206 252 -321 322 -68 41 -149 84 -205 108 -36 15 -74 31 -85 36 -57 25
-295 93 -365 105 -14 3 -31 7 -39 10 -8 2 -30 7 -50 10 -20 3 -47 7 -61 10
-145 25 -488 25 -640 -1 -14 -2 -41 -6 -60 -9 -19 -3 -66 -13 -105 -22 -38 -9
-74 -17 -80 -18 -5 -1 -55 -15 -111 -30 l-101 -28 -39 25 c-48 30 -214 93
-268 101 -21 4 -42 9 -47 11 -23 15 -224 23 -306 14z m197 -273 c87 -7 230
-49 230 -68 0 -4 -10 -13 -22 -19 -67 -35 -186 -150 -267 -259 -87 -117 -178
-307 -196 -413 -4 -18 -11 -52 -16 -77 -14 -59 -19 -250 -9 -298 5 -20 11 -53
14 -72 19 -122 83 -255 188 -392 299 -391 336 -448 367 -568 61 -236 -39 -335
-324 -326 -132 5 -165 9 -274 37 -117 30 -161 21 -188 -36 -13 -25 1 -76 25
-98 17 -16 133 -49 216 -63 21 -3 48 -8 60 -11 11 -2 82 -7 156 -10 105 -4
151 -1 205 11 72 17 150 50 173 73 7 7 21 18 31 25 10 7 34 36 53 63 109 156
78 400 -80 644 -34 53 -180 250 -193 261 -3 3 -33 41 -68 85 -55 70 -60 81
-46 91 30 22 180 57 258 60 146 6 220 -45 293 -202 46 -98 76 -123 129 -110
27 7 64 42 66 63 1 7 2 19 3 26 3 20 -59 161 -93 210 -108 158 -287 226 -492
187 -30 -6 -65 -13 -79 -15 -14 -2 -58 -16 -99 -30 -41 -14 -78 -25 -81 -25
-4 0 -12 19 -18 43 -55 212 -22 443 93 653 100 182 320 378 446 398 36 5 53
10 87 23 9 3 19 7 22 8 3 0 32 9 65 19 33 10 69 20 79 22 10 2 33 8 50 13 32
9 164 35 246 47 73 10 360 12 430 3 108 -15 126 -18 212 -38 283 -64 481 -145
628 -255 56 -42 149 -139 158 -165 2 -5 -27 -19 -64 -31 -216 -69 -388 -211
-483 -397 -28 -57 -69 -184 -77 -241 -11 -84 -11 -213 2 -306 14 -111 17 -117
55 -140 41 -24 92 -15 117 22 19 28 20 40 5 160 -41 327 89 580 360 702 34 15
77 31 96 35 l34 7 -31 -38 c-31 -40 -69 -124 -80 -179 -3 -16 -6 -70 -6 -120
1 -159 59 -287 194 -425 49 -50 156 -130 226 -170 114 -65 154 -100 186 -165
26 -51 32 -104 32 -288 1 -176 2 -179 25 -198 34 -27 68 -34 98 -18 52 28 58
49 59 226 1 172 -10 249 -48 350 -28 76 -114 161 -233 232 -113 68 -155 100
-226 171 -99 100 -140 197 -134 317 8 150 116 272 275 311 147 36 406 -72 586
-245 217 -207 385 -512 428 -773 3 -19 8 -46 11 -60 3 -14 8 -85 10 -158 4
-156 7 -162 97 -223 35 -23 92 -72 128 -109 56 -57 79 -91 120 -180 29 -64 38
-246 15 -345 -12 -57 -54 -174 -90 -250 -19 -42 -35 -92 -35 -110 0 -19 13
-71 30 -117 94 -260 165 -535 169 -650 2 -66 -13 -148 -27 -148 -5 0 -14 17
-21 38 -41 111 -152 232 -266 287 -155 75 -266 74 -496 -5 -205 -70 -268 -76
-362 -30 -46 22 -96 60 -161 121 -108 103 -135 111 -187 60 -49 -50 -39 -91
46 -177 116 -118 253 -198 360 -212 89 -11 173 4 350 63 144 48 168 53 235 51
174 -5 302 -131 355 -351 1 -5 -6 -25 -16 -44 -13 -25 -18 -57 -19 -110 0
-138 -22 -235 -78 -346 -96 -191 -323 -358 -592 -437 -90 -26 -185 -46 -256
-53 -32 -3 -67 -8 -77 -11 -23 -7 -277 -7 -337 0 -40 5 -88 13 -169 30 -42 9
-126 36 -139 44 -15 10 -18 77 -7 142 10 58 35 107 101 198 102 140 133 243
129 422 -6 255 -113 438 -320 548 -34 19 -88 42 -105 47 -3 0 -21 6 -40 13
-19 6 -46 13 -60 16 -14 2 -41 7 -60 11 -63 12 -114 13 -136 3 -44 -21 -64
-97 -34 -133 20 -24 45 -35 92 -41 204 -27 355 -110 427 -237 38 -67 52 -122
56 -218 5 -141 -23 -234 -102 -335 -95 -119 -129 -215 -132 -364 -1 -56 -7
-107 -15 -125 -8 -16 -19 -49 -25 -72 -37 -137 -295 -316 -546 -377 -110 -26
-114 -27 -220 -30 -126 -4 -236 20 -316 69 -113 70 -169 54 -249 -72 -136
-212 -329 -318 -585 -321 -263 -2 -523 106 -714 299 -20 20 -47 42 -61 49 -27
15 -97 15 -114 1 -10 -9 -42 -18 -131 -37 -22 -5 -167 -5 -200 0 -135 19 -303
64 -461 125 -131 49 -285 114 -339 143 -27 15 -28 17 -10 23 69 23 159 65 219
100 62 36 183 144 229 204 48 61 123 244 140 341 3 14 8 41 11 60 3 19 8 49
11 65 7 40 7 239 1 295 -8 59 -17 120 -23 145 -3 11 -8 36 -13 55 -27 119 -99
258 -170 327 -27 26 -38 31 -69 27 -46 -5 -81 -43 -81 -87 0 -23 13 -50 43
-90 51 -68 90 -163 111 -272 21 -106 25 -135 21 -135 -2 0 -23 9 -48 19 -89
38 -246 56 -337 39 -25 -5 -54 -10 -65 -10 -11 -1 -26 -6 -32 -11 -7 -5 -13
-7 -13 -3 0 15 -119 -55 -144 -84 -40 -48 -30 -114 21 -141 35 -19 69 -13 116
20 55 39 114 54 212 53 81 0 180 -25 230 -58 62 -40 66 -124 14 -277 -63 -185
-186 -309 -388 -391 -50 -20 -125 -42 -293 -87 -21 -5 -43 -18 -51 -29 -14
-21 -108 -49 -242 -74 -118 -22 -321 -15 -404 13 -104 36 -161 84 -175 148 -4
18 -17 44 -28 58 -11 15 -22 38 -23 53 -28 301 -96 476 -260 670 -11 13 -47
45 -80 72 -176 141 -405 212 -682 211 -118 0 -169 -13 -186 -49 -34 -69 6
-135 79 -134 226 2 271 -1 369 -24 333 -81 530 -319 573 -692 10 -86 11 -84
-95 -106 -85 -19 -245 -14 -333 9 -152 39 -302 134 -391 248 -52 66 -78 79
-159 82 -381 15 -631 132 -758 356 -31 55 -72 178 -80 244 -9 69 -7 217 2 295
12 92 10 105 -28 184 -44 94 -83 203 -91 257 -4 24 -8 46 -11 50 -8 14 -16
109 -16 196 1 78 5 101 25 141 43 85 114 156 219 219 59 35 204 96 258 108
168 38 252 49 370 49 185 -1 307 -35 447 -127 106 -68 183 -150 290 -304 137
-197 229 -260 396 -270 129 -8 223 13 565 123 19 6 131 17 172 17 57 0 131
-11 226 -34 91 -22 227 -30 299 -17 225 40 437 198 437 325 0 71 -88 108 -146
62 -14 -11 -26 -26 -26 -32 0 -20 -54 -74 -107 -107 -90 -57 -248 -90 -338
-70 -43 10 -79 17 -122 25 -16 3 -53 10 -83 17 -57 11 -212 14 -267 4 -18 -3
-48 -8 -65 -11 -18 -3 -64 -15 -103 -27 -38 -11 -72 -20 -75 -20 -3 0 -11 -4
-17 -10 -18 -15 -24 5 -43 147 -9 67 -7 317 4 380 7 43 19 127 22 145 6 53 62
228 94 295 83 171 220 284 370 305 64 9 86 26 101 76 8 27 -14 79 -40 93 -88
47 -293 -33 -430 -168 -82 -81 -111 -121 -161 -216 -28 -55 -82 -212 -95 -277
-13 -70 -16 -84 -20 -98 -2 -8 -7 -37 -10 -65 -4 -27 -10 -77 -15 -110 -9 -66
-6 -374 4 -417 3 -16 8 -38 10 -50 2 -13 7 -39 11 -59 6 -35 5 -36 -25 -43
-67 -13 -159 -7 -203 14 -63 31 -89 57 -172 178 -211 308 -452 468 -748 500
-139 15 -303 6 -442 -24 -38 -8 -81 -17 -94 -20 -51 -10 -196 -65 -263 -99
l-70 -36 26 43 c62 104 150 212 273 333 128 127 133 134 153 201 90 297 194
489 350 645 100 100 183 156 380 257 80 41 153 82 162 91 9 9 29 39 44 66 60
111 128 193 212 258 56 43 161 87 269 112 62 14 295 18 363 5 96 -17 148 -23
235 -25 92 -1 121 -7 260 -52 351 -112 565 -284 591 -473 7 -51 19 -71 51 -88
49 -27 114 1 127 53 16 63 -35 216 -102 305 -119 160 -382 313 -679 395 -35
10 -63 21 -63 25 0 20 180 177 284 246 100 68 289 161 366 180 8 2 49 12 90
23 67 17 100 23 205 37 36 5 300 5 335 1 27 -4 112 -17 145 -22 28 -5 190 -43
250 -59 53 -14 92 -8 129 19 127 94 216 131 336 142 36 3 67 7 69 9 2 2 13 2
25 -1 12 -2 50 -7 86 -9z m3865 -5302 c-145 -388 -362 -663 -630 -797 -71 -36
-176 -73 -230 -83 -178 -31 -276 -68 -375 -143 -30 -23 -122 -108 -205 -189
-186 -184 -225 -206 -360 -208 -74 -2 -104 3 -170 25 -250 86 -396 210 -517
441 -41 78 -98 212 -133 309 l-14 40 37 -7 c48 -8 233 -8 300 1 29 3 97 18
151 31 293 74 555 237 677 421 22 33 43 54 50 51 36 -14 182 -40 294 -52 63
-7 273 -7 345 0 293 29 543 105 750 229 33 19 61 34 63 32 2 -1 -13 -47 -33
-101z m-2830 -849 c147 -383 339 -610 629 -745 47 -22 89 -40 93 -40 4 0 26
-7 48 -16 l41 -15 13 -92 c7 -51 15 -101 18 -112 2 -11 6 -31 9 -45 29 -145
105 -379 165 -509 45 -97 46 -120 3 -179 -42 -58 -97 -99 -214 -157 -44 -22
-203 -58 -262 -58 -92 -1 -122 25 -153 132 -8 25 -16 58 -19 72 -9 55 -70 217
-109 294 -76 147 -216 312 -344 406 -87 65 -211 122 -388 179 -510 165 -618
234 -739 476 -56 111 -178 474 -160 474 3 0 28 -12 57 -27 29 -15 54 -28 57
-28 3 -1 23 -9 45 -19 22 -10 47 -19 55 -22 217 -58 265 -66 393 -66 248 0
475 83 644 236 l48 44 12 -32 c6 -17 33 -85 58 -151z"/>
<path d="M7309 6188 c-75 -19 -149 -55 -233 -115 -63 -45 -94 -73 -245 -221
-210 -205 -301 -251 -506 -256 -113 -3 -252 27 -346 74 -19 10 -59 37 -88 60
-60 47 -98 54 -139 23 -31 -23 -40 -70 -23 -112 22 -51 171 -144 293 -181 165
-51 303 -58 488 -24 59 10 173 58 234 99 32 21 130 108 219 194 283 273 332
297 590 300 95 1 100 2 128 30 39 40 39 82 -1 122 l-30 30 -134 -2 c-91 -2
-159 -8 -207 -21z"/>
<path d="M5615 4233 c-269 -47 -502 -232 -626 -497 -36 -78 -34 -123 8 -156
56 -44 112 -20 147 62 108 249 355 425 580 413 35 -2 95 -13 133 -24 79 -24
109 -19 137 21 18 26 21 70 5 99 -10 20 -77 54 -122 63 -12 3 -33 8 -47 11
-29 7 -186 13 -215 8z"/>
</g>
</svg>
