<?xml version="1.0" encoding="UTF-8" standalone="no"?>
<!-- Generator: Adobe Illustrator 22.1.0, SVG Export Plug-In . SVG Version: 6.00 Build 0)  -->

<svg
   version="1.1"
   id="Layer_1"
   x="0px"
   y="0px"
   viewBox="0 0 2000 2000"
   style="enable-background:new 0 0 2000 2000;"
   xml:space="preserve"
   sodipodi:docname="BRAIN Question.svg"
   inkscape:version="1.4.2 (1:1.4.2+202505120737+ebf0e940d0)"
   inkscape:export-filename="BRAIN_Question.png"
   inkscape:export-xdpi="3.3800001"
   inkscape:export-ydpi="3.3800001"
   xmlns:inkscape="http://www.inkscape.org/namespaces/inkscape"
   xmlns:sodipodi="http://sodipodi.sourceforge.net/DTD/sodipodi-0.dtd"
   xmlns="http://www.w3.org/2000/svg"
   xmlns:svg="http://www.w3.org/2000/svg"><defs
   id="defs889"><rect
     x="1381.295"
     y="165.46763"
     width="680.53234"
     height="1253.6273"
     id="rect7" /><rect
     x="1570.7434"
     y="258.99281"
     width="333.33333"
     height="35.971223"
     id="rect6" /><rect
     x="1559.9085"
     y="182.2542"
     width="8.4368154"
     height="115.10791"
     id="rect5" /><rect
     x="542.2"
     y="498.8"
     width="1009.6"
     height="1000.9"
     id="rect2" /><rect
     x="656.6"
     y="466.4"
     width="761.6"
     height="1117.6"
     id="rect1" /></defs><sodipodi:namedview
   id="namedview887"
   pagecolor="#ffffff"
   bordercolor="#666666"
   borderopacity="1.0"
   inkscape:pageshadow="2"
   inkscape:pageopacity="0.0"
   inkscape:pagecheckerboard="0"
   showgrid="false"
   inkscape:zoom="0.417"
   inkscape:cx="1001.199"
   inkscape:cy="1001.199"
   inkscape:window-width="1920"
   inkscape:window-height="1012"
   inkscape:window-x="0"
   inkscape:window-y="0"
   inkscape:window-maximized="1"
   inkscape:current-layer="Layer_1"
   inkscape:showpageshadow="2"
   inkscape:deskcolor="#d1d1d1" />
<path
   d="M1022.9,1389c-8.3,3.2-16.4,6.2-24.4,9.5c-29.7,12.5-59.9,23.7-91.5,30.4c-39.3,8.3-78.5,9.4-117.3-3.2  c-23.6-7.6-44.8-19.8-65.1-33.9c-14.6-10.2-29.6-19.9-44.7-29.2c-18.3-11.3-36.3-22.9-51.5-38.2c-6.7-6.8-12.8-14.3-18.9-21.6  c-1.7-2-3.2-3-5.9-3.1c-23.2-0.8-46.1,2.4-69,5c-30.7,3.4-61.3,8.2-92.1,9.3c-49.5,1.8-94.4-13-132.5-45.6  c-27.4-23.4-45.5-53.1-55.8-87.4c-1-3.4-2.4-4.7-5.9-5c-4.9-0.4-9.8-1.4-14.6-2.7c-27.7-7.6-42.9-26.8-47-54.3  c-2.5-16.5-2.7-33.4-3.4-50.2c-0.7-14.7-0.4-29.4-4.9-43.6c-1.5-4.7-3.2-9.5-6-13.5c-14.4-20.3-21.4-43.2-22.4-67.8  c-2-48.2,10.3-92.3,39.7-131c14.7-19.4,33.3-33.5,57.4-39.5c1.1-0.3,2.6-1.6,2.8-2.7c7.5-34.4,26.9-61.8,50.4-86.7  c22.7-24,48.4-44.4,79-57.7c4.6-2,9.6-3.3,14.4-5.1c1.3-0.5,3-1.7,3.3-3c7.9-28.7,26.5-49.6,49.1-67.5c29-22.9,62-38.5,96.1-51.9  c37.1-14.5,75.5-24.2,114.4-32.4c38.1-8.1,76.1-16.6,114.1-25c1.8-0.4,3.7-1.3,5-2.5c21.8-21,48.2-31.9,77.7-36.3  c17.7-2.6,35.3-1.7,52.6,2.8c1.8,0.5,4.1-0.1,6-0.7c34.5-11.6,69.7-19,106.2-18.1c25.1,0.6,49.5,4.9,72.2,16.1  c7.6,3.8,14.7,8.6,22.2,13c26.7-23.8,59.9-30.5,94.6-32c48.3-2.2,94.7,6,138.4,27.2c23.8,11.5,44.6,27,60.2,48.7  c1.2,1.7,2.4,3.4,3.5,5.2c2.1,3.2,3.5,8,6.4,9.3c3,1.3,7.5-0.9,11.3-1.5c20.7-3.7,41.5-5.6,62.6-5.4c44.1,0.5,80.3,17.5,108.4,51.3  c13.6,16.4,26.7,33.2,40,49.8c16.9,21,35.6,40.1,56.9,56.7c46.9,36.6,75.9,84.4,89.6,142c6.7,28.1,9.5,56.7,11.8,85.4  c1.7,22,2.8,44.1,6.5,65.7c2.4,13.8,8.4,27.1,13.7,40.2c10.6,26.2,22.2,52.1,29.5,79.5c6.1,22.7,9.6,45.7,7,69.4  c-3.4,31.2-17.5,56.6-41,77c-23.5,20.4-50.1,35.9-77.3,50.8c-8.1,4.5-16.4,8.7-24.4,12.9c3.9,11.7,8.2,23,11.4,34.7  c9.5,34.7,9.8,69-5.1,102.5c-13.1,29.4-34.8,51.4-61.1,69.2c-31.8,21.4-66.9,35.4-103.7,45.4c-21.8,5.9-44,10.2-66,15.3  c-2,0.5-4,1.1-5.8,2.1c-17.6,9.9-36.1,17.5-55.7,22.2c-3.2,0.8-3.8,2.2-3.9,5.2c-0.5,13.2-0.7,26.4-2.2,39.5  c-2.7,23.1-15.4,39.8-35.2,51.4c-19.5,11.4-40.8,17.9-62.4,23.6c-5.9,1.6-11.9,3-18.3,4.5c0-1.9-0.3-3.7,0-5.3  c3-16.5-2.4-30.7-11.8-43.8c-12.6-17.5-27.9-32.3-45.1-45c-33.6-24.9-68-48.6-101.9-73.2c-25.8-18.7-51.8-37.4-76.9-57.1  C1049.5,1425.2,1034.1,1409.1,1022.9,1389z M1394.1,633.8c1.1,0.2,2.2,0.8,3.3,0.7c8.5-0.8,16.9-2.1,25.4-2.4  c25.7-0.9,51.4-0.3,76.4,6.9c5.9-12.2,11.4-24.3,17.4-36.1c5.7-11.1,12.7-21.3,21.9-29.8c7.2-6.7,15.6-11.3,25.5-12.9  c-14.7,6.2-23.5,17.7-30.2,31.5c-8,16.5-11.3,34.4-15.9,52c-0.2,0.8,1.1,2.6,2.2,3.1c12.9,6.2,22.8,15.5,30.3,27.7  c9.6,15.4,20,30.4,24.9,48.3c0.2,0.8,1.2,1.6,2.1,2.1c21.1,11.5,35.5,29.4,46.9,49.9c1.5,2.7,3,3.5,5.9,3.3  c24.7-1.7,47-9.3,66.1-25.4c13.3-11.1,25.4-23.2,33.1-39c0.6-1.2,1-3.2,0.4-4.3c-10.9-19.3-24.8-36.2-41.5-50.8  c-12.8-11.2-26.7-21.3-38.6-33.5c-16.5-17-31.7-35.4-47.2-53.4c-12.2-14.1-23.5-29.1-36.2-42.7c-20.8-22.4-47.7-31.3-77.7-32  c-23-0.6-45.6,3-68.1,7.4c-5.8,1.1-5.8,1.2-5.1,7.6c0.2,2.4,0.4,4.8,0.2,7.2c-0.8,18.8-0.9,37.8-2.9,56.5  c-1.6,14.7-5.3,29.3-8.8,43.7c-1.4,5.8-3.9,11.7-9.9,14.8c2.2-5,5.4-9.8,6.4-15c2.9-13.8,3.6-27.9,2.2-41.9  c-2-19.8-4.2-39.5-6.1-59.3c-0.3-2.6,0.6-5.2,0.9-7.7c-1.2-2.2-2.7-4.7-3.9-7.4c-2.6-6-4.3-12.4-7.5-18.1  c-10.6-19.2-27-32.4-45.9-42.7c-36.1-19.7-75.2-27.4-115.9-28.5c-20.5-0.5-40.9,1.7-60.7,7.9c-19,5.9-34,16.3-42.3,35.1  c-8.7,19.7-14.2,40.4-18.7,61.4c-2.4,11-4.4,22-6.3,31.2c0-8.7-0.6-19.2,0.1-29.7c1.4-18.8,3.5-37.5,5.7-56.2c1-8-1.3-14.9-6.4-20.6  c-9.4-10.5-22-15.7-35.1-19.5c-20.6-5.9-41.8-8-63.1-5.5c-17.4,2.1-34.8,5.3-52.1,8.5c-8.2,1.5-9,5.7-3.7,12.3c3.2,4,6.2,8.4,8.7,13  c8.9,16.4,11.8,34.4,12.5,52.7c0.9,23.8-2.2,47.1-8.4,70.1c-1.4,5.2,1.5,8.5,6.8,8.1c10.8-0.7,21.5-1,32.3-1.7  c3.9-0.2,6.5,0.9,7.1,4.9c0.5,3.2-2,5.3-6.4,5.9c-19.6,2.4-39.1,4.5-58.7,7.3c-15.2,2.1-27.4,9.2-33.6,24.1  c-3.9,9.3-5.1,19.3-5.4,29.3c-0.7,23.3,3,46.2,6.4,69.1c0.6,4.1,0.3,7-3.8,8.1c-4.5,1.2-6-2.1-7.1-5.6c-2.8-8.6-5.9-17.2-8.3-26  c-5.8-21.6-9.2-43.5-5.3-66c4.5-26.3,19.9-42.8,45.8-48c4.8-1,7.5-3.3,8.5-7.9c2.8-12.8,6-25.6,8.1-38.5c3.2-20.5,3.4-41.1-2-61.4  c-5.7-21.6-18.6-36.1-41-41.6c-20.5-5-40.5-3.1-60.5,2.6c-21.8,6.2-38.6,19.7-53.7,35.6c-4.1,4.4-6,10.9-8.8,16.1  c0.1,0.2-0.3-0.3-0.4-0.8c-0.7-2.9-1.4-5.8-1.9-8.7c-0.8-4.9-3.1-6.6-8.1-5.5c-42.5,9.3-85.2,18-127.6,28  c-50.8,11.9-100.1,28.5-145.6,54.6c-18.9,10.9-36.4,23.6-50.1,40.8c-8.6,10.9-15,22.9-16.4,37.1c-1.6,16.6,3.3,31.6,11.6,45.6  c2.4,4.2,5.3,8.1,8.2,12.5c12.9-13.9,26.3-25.8,42.3-34.3c17-9.1,34.6-14.6,54.2-9.8c11.8,2.9,25,11.8,29.7,20.3  c-1-0.6-1.8-1.1-2.7-1.7c-0.5-0.3-1-0.7-1.5-1c-13.2-8.1-27.1-11.9-42.5-8c-22.7,5.6-40.1,19.6-55.2,36.4  c-22.3,24.7-42.9,50.9-59,80.3c-11.8,21.4-21.3,43.6-21.9,68.7c-0.4,15.6,3.4,29.8,13.1,42.2c3.4,4.4,7.2,8.4,10.8,12.6  c-0.5-1.1-1.7-1.5-2.9-2.1c-22.1-11.1-31.7-30.2-34-53.7c-0.6-6.1-0.1-12.3-0.1-19c-2,0.9-3.2,1.4-4.4,2  c-12.7,6.4-23.5,15.2-33.7,25c-22,21.1-40.6,44.6-52.4,73c-5.9,14.4-9,29.3-6.6,44.6c3.7,24.2,19.7,39.9,38.4,54.1  c12.9-17.6,29.2-30.5,48.6-41c-0.6,1-0.6,1.1-0.7,1.2c-0.6,0.4-1.2,0.8-1.8,1.3c-20.8,14.5-38.3,32-48.1,55.9  c-9.2,22.5-8,44.5,4.3,65.8c10.6,18.4,26.6,31,43.7,43c25.1,17.6,52.3,22.2,81.8,16c8.3-1.8,10.6-9.1,5.8-15.9  c-4.9-6.9-9.5-14.2-12.7-21.9c-9.7-23.5-9-48-5-72.4c2.7-16.8,6.6-33.4,10-50c1.8-8.6,1.7-16.8-6.5-22.5c-3.4-2.4-6.9-4.9-10.8-6.3  c-13.8-4.8-27.7-9.2-41.6-13.5c-12.3-3.9-24.7-7.5-37.1-11.2c13.5,1.5,26.7,3.4,39.9,6.1c15.4,3.2,31,6.1,46,10.9  c18.3,5.8,25.7,18.5,23.5,36.8c-1.5,12.6-3.7,25.1-5.5,37.7c-2.8,19.1-4.7,38.3-1.4,57.6c3.3,19.5,11.8,35.9,27.7,48  c14,10.7,29.9,17,47.3,19.7c22.4,3.4,42.7-1.8,61.2-14.4c23.8-16.3,39.5-39.1,51.5-64.8c5.3-11.4,7.5-22.5,4.3-35.3  c-8.6-33.8-26.6-59.8-58.9-74.4c-11.6-5.2-23.9-8.9-34.8-12.9c0.6,0,2.5-0.1,4.3,0.3c10.2,2.2,20.5,4,30.5,6.9  c23.3,6.8,41.9,20.4,55.6,40.6c10.9,16.1,17.3,33.9,21,52.8c0.4,2.2,1.6,5.4,3.3,6c1.8,0.7,4.9-0.5,6.7-1.9  c6.2-4.7,12-9.8,18.2-14.6c24.8-19.3,51.7-35.3,79.7-49.6c6.2-3.2,11.3-8.6,16.5-13.3c1.1-1,1.6-4.3,0.8-5.5  c-4-6.2-7.9-12.7-14.6-16.6c-8.7-5-17.1-10.4-25.9-15.1c-16.2-8.7-32.6-16.9-48.8-25.5c-8.7-4.6-16.8-5.8-25.8,0.2  c-11.7,7.7-24.6,13.1-39.2,16.3c1-1.4,1.4-2.1,2-2.7c13.2-12.8,26.1-26,39.6-38.4c19.1-17.5,41-32,56.8-53.3  c1,24.4-14.1,40.5-29.5,56.6c3.4,2.8,7,5.4,10.3,8.4c10.2,9.5,21,18,34,23.5c8.5,3.6,16.6,8.1,24.8,12.4c7.5,4.1,15.2,8.4,19.2,16.2  c2.6,5.1,3.5,11.2,4.7,17c1.5,6.8,2.8,7.6,9.5,5.6c16.6-4.7,33.3-9.2,49.9-14c2.7-0.8,5.5-2.5,7.4-4.6c9.9-10.7,19.1-22.2,29.5-32.4  c11.6-11.4,25.5-19.6,40.7-25.4c1-0.4,1.9-0.8,3.6-1.6c-27.9-7-48.3-23.6-55.9-37.7c11.6,9.9,24.1,17,38.3,20.9  c34.7,9.6,67.5,4.4,98.5-13.4c15.4-8.8,27.9-20.6,35.5-36.8c6.8-14.4,8.2-30.1,7.8-45.6c-0.6-19.8-3.5-39.5-5.4-59.3  c-1.1-11.7-2.6-23.5-3-35.3c-0.3-8.6,2.9-15,7.3-18c-3.1,7.3-3.5,14.2-0.8,24.4c5.2,20,11.1,39.9,15.9,60  c3.8,16.2,5.2,32.8,3.5,49.4c-0.5,4.9-0.7,9.7-1.1,14.8c3.7,0.5,7.1,0.8,10.5,1.3c26,3.5,52.1,4.7,78.4,2.7  c21.4-1.6,42.2-6.1,61.8-15c1.6-0.7,3.3-2,4.2-3.6c5.9-10.5,11.5-21.3,17.3-31.8c11.7-21.1,23.2-42.4,35.3-63.3  c7.8-13.4,16.4-26.4,27.8-37.2c2.5-2.4,5.5-4.1,8.3-6.2c-3,2.7-5.5,5.6-7.9,8.7c-12.3,15.8-20.7,33.8-28.4,52.1  c-11.9,28.1-23,56.5-34.3,84.8c-0.6,1.5-0.5,4,0.4,5.1c14.1,17.6,27.7,35.6,43,52.2c14.3,15.5,31.4,27.7,52.3,33.7  c-0.7,0.2-1.3,0.3-1.9,0.2c-0.7-0.1-1.5-0.2-2.2-0.3c-20.7-4-38.9-13.7-54.8-26.9c-16.3-13.6-31.5-28.5-47-43  c-3.6-3.3-7.3-4.5-11.8-2.6c-25.6,10.3-52.5,13.8-79.8,14.3c-9.6,0.2-19.2-0.1-28.7-0.8c-14.2-1-28.3-2.4-42.4-4.1  c-4.8-0.6-7.3,0.9-9.8,4.8c-4.3,6.6-8.7,13.3-14.2,18.9c-11.5,12-25.6,20.5-41.1,26.4c-18.1,6.9-36.9,10.1-56.3,8.6  c-5.8-0.5-11.2-0.8-16.4,2.2c-3.9,2.2-7.9,4.3-11.6,6.8c-20.6,14.1-35.4,33.2-47.5,54.6c-2.1,3.8,0.2,5.2,2.3,6.9  c20.4,17.8,38.3,37.7,51.5,61.6c9,16.3,15.6,33.5,17.3,52.3c0.5,6,0.8,12.1,1.1,18c10.3-2.3,20.4-4.9,30.7-6.6  c10.4-1.7,21-2.8,31.6-3.7c10.3-0.9,20.5-1.4,30.8-2c-3.1,1-6.2,1.5-9.3,1.8c-21.1,2.1-42.1,5.2-62.6,11c-6.1,1.7-13.1,2.8-17.9,6.4  c-8.3,6.2-15.7,13.7-22.7,21.4c-9.3,10.3-13.4,22.4-8,36c3.8,9.6,7.8,19.4,13.5,28.1c7.7,11.8,16.3,23.3,25.8,33.6  c9.5,10.3,18.4,20.7,23.9,33.7c4.4,10.4,8.4,21,13.6,31c6.9,13,15.5,24.8,26.3,34.9c7.1,6.6,14.8,10.1,24.7,5.7  c6-2.6,12.6-3.8,18.7-6c21.8-7.9,44-14.2,67.1-16.3c6.4-0.6,10.3-3.9,13.3-8.6c3.9-6,7.6-12.2,10.2-18.8c5.2-13.1,6.9-26.8,0.5-40  c-3.6-7.5-8.8-14.2-12.7-21.5c-15.1-28.4-26.1-58.2-31.7-89.9c-1.1-6.5-1.5-13-2.3-19.6c0.4-0.1,0.8-0.2,1.2-0.3  c2.6,3.1,5.2,6.1,7.7,9.3c12.2,15.8,21.7,33.2,30.1,51.2c2.7,5.7,4.2,6.3,10.2,4.4c18.4-5.9,36.7-12.5,55.4-17.5  c28.3-7.6,56.8-14.9,85.5-20.9c19.7-4.1,39.9-6.1,59.9-8.2c17.9-1.9,36-2.1,53.9,0.7c17.4,2.8,33.2-0.7,47.4-11.2  c17.1-12.8,30.5-29,42.3-46.6c20.8-30.8,37.1-63.9,51.2-98.2c7.8-19,15.5-38.1,20-58.3c1.2-5.5,0.3-7.2-5.2-9  c-5-1.6-9.9-3.2-14.9-4.7c-38.7-11.7-78.1-18.4-118.7-18.1c-10.2,0.1-20.2,1.3-29.4,6.4c-13.3,7.4-21.1,19.2-25.6,33.2  c-2.7,8.6-4.5,17.5-6.7,26.4c-0.4-1.3-1.2-2.7-1.3-4.1c-0.5-6.6-1.2-13.1-1.1-19.7c0.3-28.5,18.1-53.8,46.8-59.9  c5.2-1.1,10.6-1.7,14.8-5.5c4.4-4,9.5-7.4,13.5-11.8c12.7-14.5,25.9-28.6,37.3-44.1c22.4-30.5,43.7-61.9,65.7-92.7  c3.4-4.8,3.7-9.1,1.1-14.1c-5.3-9.9-10.1-20-15.9-29.6c-4-6.5-8.7-12.9-14.2-18.2c-8.3-8.2-19.2-12.5-30.1-16.2  c-30.1-10.2-61.4-13.7-92.9-15.5c-2.3-0.1-4.6-0.5-6.9-0.8c0-0.2,0-0.5,0-0.7C1392.7,634.4,1393.4,634.1,1394.1,633.8z   M764.3,1089.9c-1.4,2.8-3.2,5.4-4.3,8.3c-9.9,27.9-10,56.3-3.8,84.9c0.7,3.4,3,5.3,7,4.7c5.9-0.9,11.9-1.5,17.8-2.3  c35.6-4.7,68.7-16.4,99.3-35.2c19.1-11.8,38.6-22.8,60.2-29.5c3.7-1.2,5.2-3.4,5-7.3c-1.1-15.5-6.2-29.8-13.4-43.4  c-16.2-30.3-40.6-52.9-68.8-71.7c-1.8-1.2-4.5-2-6.5-1.7c-27.2,4.6-52.9,13.8-77.7,25.4c-30.8,14.4-59.7,32.2-86.3,53.5  c-27.8,22.3-53.1,47.1-70.8,78.6c-11.9,21.2-18.9,43.5-14.4,68.2c5.1,27.8,16,52.8,35.5,73.7c14.3,15.3,31.1,27.4,49,38.2  c12.9,7.8,26.1,15.2,38.3,24c19.7,14.1,39.2,28.4,61.7,37.8c19.5,8.2,39.8,11.5,60.9,11.3c22.1-0.3,43.2-6,64.3-11.4  c17.6-4.5,32.8-12.8,43.7-27.8c10-13.9,16.1-29.5,18.1-46.3c2.4-20.3-1.1-39.6-15.1-55.5c-11.2-12.6-22.7-25-34.9-36.7  c-14.5-13.9-29.7-26.9-44.8-40.1c-6.7-5.9-14-10.3-23.9-8.2c-6.5,1.4-13.3,0.7-19.5,4.2c-3.8,2.2-8.2,3.5-12.4,5.1  c-18.5,7-37.7,11.5-57.1,15.2c-5.1,0.9-6.5,3.5-4.8,8.4c0.4,1.3,1,2.5,1.5,3.7c7.9,17.5,18,33.7,29.2,49.3c2.1,2.9,2.1,5.7-0.7,7.9  c-2.6,2.1-5.2,1.4-7.7-0.7c-26.7-23.1-45.2-51.3-52.2-86.2c-5.7-28.3-2.9-55.7,11.3-81.4C752.1,1100,756.9,1093.8,764.3,1089.9z   M1619.2,1338.4c-9.6-12.5-21-19.1-38.1-21.7c-27.1-4.2-53.9-1.3-80.3,4.4c-18.1,3.9-35.7,9.7-53.5,14.9  c-16.6,4.8-33.3,9.5-48.8,17.6c-16.7,8.8-27.7,22-31.5,40.7c-1.5,7.2-2.3,14.5-3.6,22.9c-7.7-29.2-3.2-53.9,20.4-73.7  c-6.3,0-11.8,0.1-17.3,0c-16.6-0.5-33.2-1.4-49.9-1.4c-28.9,0-57.9,0.5-86.8,0.9c-1.6,0-3.7,0.6-4.6,1.7c-11,14-17.8,29.6-18.5,47.6  c-0.7,16,3.5,30.9,11.8,44.4c14.2,23.2,31.8,42.1,60.3,48.2c22.4,4.8,44.9,8.7,67.8,10.1c13.8,0.8,27.6,1.6,41.3,0.8  c20.9-1.3,41.7-3.6,62.5-6.1c10.3-1.3,21-2.5,30.6-6.3c24.3-9.7,42-26.7,49.4-52.6c5-17.4,4.8-35.2,2.8-53c-0.4-3.1-0.8-6.2-1.2-9.3  c-0.4-3.1-0.7-6.2-1.1-9.2c6.9,22,11.8,44.3,9.5,67.4c-1.3,12.9-4.8,25.3-11.7,36.4c-2.7,4.4-5.8,8.6-9.1,13.3  c1.2-0.2,1.9-0.2,2.6-0.3c30.6-7.3,60.3-17.1,88.6-31.2c24.6-12.2,47-27.4,64.3-49.1c16-20.1,23.4-43.2,23-68.7  c-0.3-18.2-4.2-35.9-10.6-52.9c-2.7-7.2-5.8-14.3-8.5-20.7c-39.6,16.2-78.5,32.1-117.3,48C1585.9,1306,1609.6,1311.6,1619.2,1338.4z   M1519,1100.6c-7.1,9.5-13.9,19.5-21.6,28.8c-12.3,14.9-27,27.1-45.1,34.6c-14.1,5.9-28.7,5.1-43.3,2.7c-3-0.5-4.7,0-6,2.9  c-2.1,4.9-4.7,9.7-6.8,14.6c-10.5,24.9-17.6,50.5-13.9,77.9c3.1,22.9,14.2,41.2,32.8,54.9c1.2,0.9,3.1,1.5,4.5,1.3  c9.2-1.7,18.5-3.4,27.6-5.6c37.1-8.7,73.4-19.9,109.3-32.7c50.4-18,99.5-38.9,147.2-63.1c7.4-3.8,14.7-7.8,22.2-11.9  c-5.5-13.7-10.7-27-16-40.2c-0.3,0.1-0.5,0.1-0.8,0.2c0,3.9,0,7.9,0,12.5c-1.2-7-1.9-13.3-3.4-19.5c-4.4-18.5-14-33.5-30.6-43.4  c-12.8-7.6-26.9-11.1-41.6-11c-14.8,0.1-29.5,2.2-44.3,2.7c-14.8,0.5-29.6,0.6-44.3-0.3C1536.1,1105.5,1527.5,1102.5,1519,1100.6z   M1578.2,927.4c-5.4,55.3-24.4,106-48.9,155.3c3.2,1.3,6.2,2.7,9.3,3.8c18.5,6.6,37.7,7.2,57,7.3c16.7,0,33.5-0.9,50.1,2.7  c32.8,7.1,54.9,26,61.8,59.8c0.3,1.5,2,3.4,3.4,3.9c6.2,2,12.5,3.9,18.9,5.2c17.1,3.5,34.2,3.4,49.8-4.8  c28.5-15,43.4-39.2,44.7-71.4c0.6-13.8-2.1-27.4-5.6-40.7c-6.3-23.7-16.2-46.1-25.9-68.5c-1.5-3.4-4.4-6.4-7.3-8.8  c-8.4-7-18.5-10.7-28.9-13.6c-8-2.2-15.9-2.8-24.3-1.7c-14.5,1.9-29.1,3.7-43.6,4c-11.9,0.2-23.9-1.2-35.6-3.2  C1626.2,952,1600,945.1,1578.2,927.4z M1443.5,880.2c15,1.8,30,3,44.7,5.6c29.1,5.1,56,15.8,80.2,33.1c3,2.1,5.9,4.5,9.3,6  c13.2,5.7,27.3,7.1,41.3,8.6c21.2,2.3,42.5,5.2,63.7,5.9c23.3,0.7,46.7-0.6,70-1.6c7.5-0.3,14.9-2.2,22.5-3.4  c-1.1-5.2-2.5-9.5-2.9-13.9c-2.2-22-4-44-6.2-66c-2-19.9-3.7-39.9-6.6-59.6c-4-27.1-12.2-53-25-77.4c-0.7-1.4-1.6-2.7-2.6-4.4  c-20.1,42.9-54.8,67.8-97.5,83.1c10.6,27.8,16.6,56.2,19.5,86.1c-0.6-2.1-1.1-3.3-1.4-4.6c-6.5-28.5-15.3-56.2-29.6-81.9  c-8.3-14.9-18.2-28.5-31.3-39.4c-6.7-5.5-14.7-9.5-22.2-13.8c-0.9-0.5-3.5,0.3-4.2,1.2c-12.8,17.6-25.3,35.4-38.3,52.8  c-10.7,14.3-21.4,28.8-33.2,42.1C1479,855,1462.7,869.7,1443.5,880.2z M1153.7,1197.6c0.3,1.2,0.3,1.8,0.6,2.3  c8.7,21.3,15.6,43.1,18.7,66c1,7.8,1.9,15.8,4.6,23c4.1,10.9,9.8,21.3,14.8,31.9c1.3,2.8,3.5,3.5,6.6,3.3c19.6-1,39.2-2.1,58.8-2.7  c16.3-0.4,32.7-0.4,49-0.1c19.6,0.3,39.2,1.5,58.8,1.6c11.8,0.1,23.6-1,35.4-1.9c1.7-0.1,4.2-2.2,4.7-3.8c0.5-1.6-0.6-4.6-2-5.7  c-21.1-17.4-30.7-40.3-32.4-66.9c-1.5-22.1,2.6-43.5,9-64.5c1.4-4.7,3.1-9.4,4.8-14.7C1305.9,1165.7,1230.5,1184.5,1153.7,1197.6z   M259.1,801.9c-11.9,1.9-21.7,6.8-30.4,14c-16.5,13.5-27.3,31-35.4,50.4c-12.1,29.2-16.5,59.3-11.6,90.8c3,19.2,12.9,35.2,23.7,50.5  c7.7,10.8,20.3,14.8,33.1,16.8c7.2,1.1,14.5,1.6,22.7,2.4c-17.3,4.4-33.8,5.9-50.6,1.3c0,1.1,0,1.7,0,2.3  c0.9,17.3,1.7,34.6,2.8,51.9c0.7,10.4,1.2,20.9,2.7,31.2c3.7,25.6,23.9,36.2,49,31.2c16-3.2,31.8-6.6,48.3-6.1  c2.9,0.1,5.9-1,9.4-1.7c-28.9-36.2-34.3-73.5-8.8-113c-13-4.7-24.5-10.8-33.8-20.1c-19-18.9-24.9-41.9-20.4-67.9  c4.2-24,15.9-44.5,31.1-63.1c4.2-5.1,8.8-9.9,13.5-15.1C281.7,845.2,264.3,828.6,259.1,801.9z M321.3,843.8  c15.6-11.3,32.1-21,51.8-23.8c0.9-0.1,2.1-1.9,2.3-3c2.4-16.5,7.8-32.1,14.9-47.1c10.1-21.3,23.2-40.6,38.1-58.8  c1.6-2,2.4-3.4,0.4-6c-9.6-12.7-17.4-26.3-21.6-41.8c-1.2-4.4-2-8.9-3.3-14.6c-9.5,4.2-18.7,7.5-27,12.2c-26,14.6-48,34-66.8,56.9  c-13.2,16.1-24.2,33.6-29.4,54.1c-4.2,16.4-3.1,32,6.9,46.2c6.9,9.7,16.4,16.4,26.8,21.9C316.5,841.1,318.8,842.4,321.3,843.8z   M340,1190.7c-0.3,0-0.5-0.1-0.8-0.1c-0.5,3.8-1.5,7.5-1.5,11.3c-0.4,19.7,9.1,34.3,24.3,45.7c18.6,13.9,40.4,19.4,63,21.3  c37.6,3.2,73.7-3.5,108.8-16.5c4.1-1.5,8-3.4,12-5.1c-0.1-0.4-0.2-0.7-0.3-1.1c-14,0.8-28.1,1.6-42.1,2.4c-30,1.8-59.9,2.8-89.8-1.3  c-16.7-2.3-32.9-6.4-47.5-15.4c-11.6-7.2-20-17.1-23.8-30.4C341.4,1198.1,340.8,1194.4,340,1190.7z"
   id="path876"
   style="fill:#4f0061;fill-opacity:1"
   inkscape:export-filename="/home/dave/Blog/GitHub/PragmaticCoding2/assets/logos/brain.png"
   inkscape:export-xdpi="2.8167734"
   inkscape:export-ydpi="2.8167734" />
<path
   d="M509.3,628.7c-0.1-9,2.3-18.3,7.4-26.8c7.2-12.1,17.6-21,29.7-27.9c20.6-11.7,43-16.9,66.5-16.5c21,0.4,40.9,5.3,57.7,18.7  c11,8.8,19,20.2,26.2,32.1c12.6,20.9,21.8,43.3,27.9,67c0.3,1,0.7,1.9,1.3,3.6c6.2-8.1,12.2-15.8,18.1-23.6  c13.5-18.1,23.8-37.9,31.2-59.2c6.9-20.1,10.6-40.7,9.6-62.1c-0.6-11.4-3.6-21.5-8.7-29.2c5.6,3.4,9.7,9.4,13.2,19.7  c5.9,17.3,6.5,35.1,4.6,53.2c-3.4,33.3-16,63.1-34.7,90.4c-9.2,13.4-19.2,26.2-28.3,39.7c-6.6,9.8-11.2,20.8-12.5,32.7  c-1.4,12.3,2.8,23.5,9.5,33.4c7,10.2,14.5,20.1,22.9,29.2c15.3,16.5,31.3,32.3,47,48.3c1.1,1.1,2.2,2.3,2.8,4.1  c-6.2-4.2-12.8-8-18.7-12.6c-16.8-12.9-34-25.4-49.8-39.5c-14.6-13.1-26.9-28.4-31.3-48.5c-3.2-14.5-1.4-28.5,4.9-41.5  c4.3-8.9,4.1-17.5,2.5-26.6c-4.6-25.7-12.5-50.3-25-73.3c-6.4-11.7-13.4-23-24.2-31.3c-11.7-8.9-25.2-13.5-39.6-15.5  c-21.1-2.9-41.8-0.7-61.7,7.1c-18.7,7.3-34.9,17.9-43.4,37C511.8,617,510.8,623.4,509.3,628.7z"
   id="path878"
   style="fill:#4f0061;fill-opacity:1"
   inkscape:export-filename="/home/dave/Blog/GitHub/PragmaticCoding2/assets/logos/brain.png"
   inkscape:export-xdpi="2.8167734"
   inkscape:export-ydpi="2.8167734" />
<path
   d="M1335.2,992.4c6.4,12.1,4.2,23.8-3.4,33.9c-5.7,7.6-12.9,14.5-20.6,20.3c-21.5,16.2-46.4,25.7-72.2,32.2  c-22.2,5.6-44.8,10-67.5,13.5c-25.5,3.9-51.3,4.7-77,3.7c-7.7-0.3-15.3-1.1-23-2.7c22.9-4.4,45.7-8.9,69.4-13.5  c-33.7-52.1-46.4-108.3-34.7-169.4c0,10.6-0.4,21.2,0.1,31.7c1,23.5,6.2,46.2,14.8,68c9.3,23.3,22.1,44.4,39.1,63  c2.3,2.5,4.1,2.4,6.9,1.8c35.7-7.5,71.4-15,105.9-27c16.2-5.7,32.2-11.8,46.1-22.3C1330,1017.1,1336.6,1006.8,1335.2,992.4z"
   id="path880"
   style="fill:#4f0061;fill-opacity:1"
   inkscape:export-filename="/home/dave/Blog/GitHub/PragmaticCoding2/assets/logos/brain.png"
   inkscape:export-xdpi="2.8167734"
   inkscape:export-ydpi="2.8167734" />
<path
   d="M432.8,905.5c7.5-1.7,15-3.4,22.5-5.3c25-6.3,46.9-18.3,65.4-36.1c10.7-10.3,19.9-22.3,30.1-33.2c5.1-5.5,2.8-11.1,1.4-16.8  c-3.2-12.9-12.2-21-23.6-26.5c-11-5.3-22.5-9.5-33.6-14.6c-7.8-3.6-15.4-7.8-23-11.7c0.2-0.4,0.4-0.8,0.6-1.2  c4.2,1.7,8.4,3.7,12.7,4.9c13.1,3.5,26.3,6.6,39.4,10c13,3.5,25.2,8.6,34.5,18.8c3.3,3.6,5.9,7.8,9.1,12.1  c6.2-9.2,12.1-18.5,18.5-27.4c9.4-13,18.6-26.4,29.1-38.5c10.5-12.1,23-22.2,39.8-24.9c1.8-0.3,3.5-0.4,4.9-0.6  c-5.6,3.7-11.8,7-17.1,11.4c-13.1,11.1-21.3,26-29.7,40.7c-15.1,26.4-29,53.6-47.9,77.6c-20.3,25.8-44.5,46.6-76.4,56.9  C470.9,907.3,452,908.6,432.8,905.5z"
   id="path882"
   style="fill:#4f0061;fill-opacity:1"
   inkscape:export-filename="/home/dave/Blog/GitHub/PragmaticCoding2/assets/logos/brain.png"
   inkscape:export-xdpi="2.8167734"
   inkscape:export-ydpi="2.8167734" />
<path
   d="M1343.3,633.9c-44.4,5.4-88.4-0.8-132.8-6.6c0.5,19.4-0.9,38.6-5.3,57.4c-4.4,18.7-11.1,36.3-21.9,52.4  c10-69.7,10.4-139.3-3.3-208.8c6.8,7.3,11.2,15.9,15.1,24.8c7,16.1,11,33.1,13.4,50.4c0.3,2.3,1.2,3.4,3.3,4  c16,4.5,31.9,9.8,48.1,13.4c21.5,4.7,43.3,8.2,65.1,11.7c6,1,12.3,0.1,18.4,0.1C1343.4,633.2,1343.4,633.6,1343.3,633.9z"
   id="path884"
   style="fill:#4f0061;fill-opacity:1"
   inkscape:export-filename="/home/dave/Blog/GitHub/PragmaticCoding2/assets/logos/brain.png"
   inkscape:export-xdpi="2.8167734"
   inkscape:export-ydpi="2.8167734" />
<text
   xml:space="preserve"
   id="text1"
   style="font-size:24px;font-family:sans-serif;-inkscape-font-specification:'sans-serif, Normal';text-align:start;writing-mode:lr-tb;direction:ltr;white-space:pre;shape-inside:url(#rect1);display:inline;fill:#750099;fill-opacity:0.750396;stroke:#ffffff;stroke-width:1.8822;stroke-miterlimit:4.9;stroke-opacity:0.893348" /><text
   xml:space="preserve"
   id="text2"
   style="font-size:24px;font-family:sans-serif;-inkscape-font-specification:'sans-serif, Normal';text-align:start;writing-mode:lr-tb;direction:ltr;white-space:pre;shape-inside:url(#rect2);display:inline;fill:#750099;fill-opacity:0.750396;stroke:#ffffff;stroke-width:1.8822;stroke-miterlimit:4.9;stroke-opacity:0.893348" /><text
   xml:space="preserve"
   style="font-size:24px;font-family:sans-serif;-inkscape-font-specification:'sans-serif, Normal';text-align:start;writing-mode:lr-tb;direction:ltr;text-anchor:start;fill-opacity:0.75039601;stroke:#ffffff;stroke-width:1.8822;stroke-miterlimit:4.9;stroke-opacity:0.893348;fill:#5a027a"
   x="870.5036"
   y="800.95923"
   id="text3"><tspan
     sodipodi:role="line"
     id="tspan3"
     x="870.5036"
     y="800.95923">?</tspan></text><text
   xml:space="preserve"
   style="font-size:24px;font-family:sans-serif;-inkscape-font-specification:'sans-serif, Normal';text-align:start;writing-mode:lr-tb;direction:ltr;text-anchor:start;white-space:pre;inline-size:131.463;display:inline;fill:#000000;fill-opacity:0.750396;stroke:#ffffff;stroke-width:1.8822;stroke-miterlimit:4.9;stroke-opacity:0.893348"
   x="1465.2278"
   y="182.2542"
   id="text4"><tspan
     x="1465.2278"
     y="182.2542"
     id="tspan1">ntaoeun</tspan></text><text
   xml:space="preserve"
   id="text5"
   style="font-size:24px;font-family:sans-serif;-inkscape-font-specification:'sans-serif, Normal';text-align:start;writing-mode:lr-tb;direction:ltr;white-space:pre;shape-inside:url(#rect5);display:inline;fill:#000000;fill-opacity:0.750396;stroke:#ffffff;stroke-width:1.8822;stroke-miterlimit:4.9;stroke-opacity:0.893348" /><text
   xml:space="preserve"
   id="text6"
   style="font-size:24px;font-family:sans-serif;-inkscape-font-specification:'sans-serif, Normal';text-align:start;writing-mode:lr-tb;direction:ltr;white-space:pre;shape-inside:url(#rect6);display:inline;fill:#000000;fill-opacity:0.750396;stroke:#ffffff;stroke-width:1.8822;stroke-miterlimit:4.9;stroke-opacity:0.893348" /><text
   xml:space="preserve"
   id="text7"
   style="font-style:normal;font-variant:normal;font-weight:normal;font-stretch:normal;font-size:1066.67px;font-family:Chilanka;-inkscape-font-specification:'Chilanka, Normal';font-variant-ligatures:normal;font-variant-caps:normal;font-variant-numeric:normal;font-variant-east-asian:normal;text-align:start;writing-mode:lr-tb;direction:ltr;white-space:pre;shape-inside:url(#rect7);display:inline;fill:#4d0172;fill-opacity:0.851809;stroke:#ffffff;stroke-width:1.8822;stroke-miterlimit:4.9;stroke-opacity:0.893348"
   transform="matrix(2.1879028,0,0,1.7008685,-2574.1929,-172.09543)"><tspan
     x="1381.2949"
     y="1009.9139"
     id="tspan2">?</tspan></text></svg>
